<svg width="131" height="26" viewBox="0 0 131 26" fill="none" xmlns="http://www.w3.org/2000/svg">
<path d="M9.45572 6.14297C10.7646 3.77975 11.4185 2.59814 12.3969 2.59814C13.3752 2.59814 14.0291 3.77975 15.338 6.14297L15.6769 6.75457C16.0488 7.42651 16.2347 7.76247 16.524 7.98403C16.8132 8.20558 17.1748 8.28775 17.898 8.45209L18.555 8.60187C21.0964 9.18124 22.366 9.4704 22.6687 10.4492C22.9703 11.4269 22.1046 12.4473 20.3722 14.487L19.9238 15.0144C19.4321 15.5937 19.1852 15.8839 19.0746 16.2418C18.9641 16.6006 19.0013 16.9875 19.0757 17.7604L19.1439 18.4645C19.4052 21.1866 19.5364 22.5471 18.7451 23.1515C17.9538 23.7568 16.7637 23.2045 14.3855 22.1019L13.7688 21.8169C13.0932 21.5028 12.7553 21.3468 12.3969 21.3468C12.0384 21.3468 11.7006 21.5028 11.0249 21.8169L10.4092 22.1019C8.03008 23.2045 6.83998 23.7558 6.04968 23.1525C5.25732 22.5471 5.38852 21.1866 5.64988 18.4645L5.71807 17.7614C5.79245 16.9875 5.82964 16.6006 5.71807 16.2428C5.60856 15.8839 5.36166 15.5937 4.86992 15.0154L4.42156 14.487C2.6891 12.4483 1.82339 11.428 2.12505 10.4492C2.42774 9.4704 3.69841 9.18019 6.23977 8.60187L6.8968 8.45209C7.61892 8.28775 7.97946 8.20558 8.26975 7.98403C8.55901 7.76247 8.74496 7.42651 9.11687 6.75457L9.45572 6.14297Z" fill="#F8BD00"/>
<path d="M35.799 6.14297C37.1079 3.77975 37.7618 2.59814 38.7401 2.59814C39.7184 2.59814 40.3724 3.77975 41.6813 6.14297L42.0201 6.75457C42.392 7.42651 42.578 7.76247 42.8672 7.98403C43.1565 8.20558 43.5181 8.28775 44.2412 8.45209L44.8983 8.60187C47.4396 9.18124 48.7093 9.4704 49.012 10.4492C49.3136 11.4269 48.4479 12.4473 46.7154 14.487L46.2671 15.0144C45.7753 15.5937 45.5284 15.8839 45.4179 16.2418C45.3074 16.6006 45.3445 16.9875 45.4189 17.7604L45.4871 18.4645C45.7485 21.1866 45.8797 22.5471 45.0883 23.1515C44.297 23.7568 43.1069 23.2045 40.7288 22.1019L40.112 21.8169C39.4364 21.5028 39.0986 21.3468 38.7401 21.3468C38.3817 21.3468 38.0438 21.5028 37.3682 21.8169L36.7525 22.1019C34.3733 23.2045 33.1832 23.7558 32.3929 23.1525C31.6006 22.5471 31.7318 21.1866 31.9931 18.4645L32.0613 17.7614C32.1357 16.9875 32.1729 16.6006 32.0613 16.2428C31.9518 15.8839 31.7049 15.5937 31.2132 15.0154L30.7648 14.487C29.0324 12.4483 28.1667 11.428 28.4683 10.4492C28.771 9.4704 30.0417 9.18019 32.583 8.60187L33.2401 8.45209C33.9622 8.28775 34.3227 8.20558 34.613 7.98403C34.9023 7.76247 35.0882 7.42651 35.4601 6.75457L35.799 6.14297Z" fill="#F8BD00"/>
<path d="M62.1424 6.14297C63.4513 3.77975 64.1052 2.59814 65.0835 2.59814C66.0618 2.59814 66.7158 3.77975 68.0247 6.14297L68.3635 6.75457C68.7354 7.42651 68.9214 7.76247 69.2106 7.98403C69.4999 8.20558 69.8615 8.28775 70.5846 8.45209L71.2416 8.60187C73.783 9.18124 75.0526 9.4704 75.3553 10.4492C75.657 11.4269 74.7913 12.4473 73.0588 14.487L72.6105 15.0144C72.1187 15.5937 71.8718 15.8839 71.7613 16.2418C71.6507 16.6006 71.6879 16.9875 71.7623 17.7604L71.8305 18.4645C72.0919 21.1866 72.2231 22.5471 71.4317 23.1515C70.6404 23.7568 69.4503 23.2045 67.0722 22.1019L66.4554 21.8169C65.7798 21.5028 65.442 21.3468 65.0835 21.3468C64.725 21.3468 64.3872 21.5028 63.7116 21.8169L63.0959 22.1019C60.7167 23.2045 59.5266 23.7558 58.7363 23.1525C57.944 22.5471 58.0752 21.1866 58.3365 18.4645L58.4047 17.7614C58.4791 16.9875 58.5163 16.6006 58.4047 16.2428C58.2952 15.8839 58.0483 15.5937 57.5566 15.0154L57.1082 14.487C55.3757 12.4483 54.51 11.428 54.8117 10.4492C55.1144 9.4704 56.3851 9.18019 58.9264 8.60187L59.5834 8.45209C60.3056 8.28775 60.6661 8.20558 60.9564 7.98403C61.2457 7.76247 61.4316 7.42651 61.8035 6.75457L62.1424 6.14297Z" fill="#F8BD00"/>
<path d="M88.4856 6.14297C89.7945 3.77975 90.4485 2.59814 91.4268 2.59814C92.4051 2.59814 93.059 3.77975 94.3679 6.14297L94.7068 6.75457C95.0787 7.42651 95.2646 7.76247 95.5539 7.98403C95.8432 8.20558 96.2047 8.28775 96.9279 8.45209L97.5849 8.60187C100.126 9.18124 101.396 9.4704 101.699 10.4492C102 11.4269 101.135 12.4473 99.4021 14.487L98.9537 15.0144C98.462 15.5937 98.2151 15.8839 98.1045 16.2418C97.994 16.6006 98.0312 16.9875 98.1056 17.7604L98.1738 18.4645C98.4351 21.1866 98.5663 22.5471 97.775 23.1515C96.9837 23.7568 95.7936 23.2045 93.4154 22.1019L92.7987 21.8169C92.1231 21.5028 91.7852 21.3468 91.4268 21.3468C91.0683 21.3468 90.7305 21.5028 90.0549 21.8169L89.4391 22.1019C87.06 23.2045 85.8699 23.7558 85.0796 23.1525C84.2872 22.5471 84.4184 21.1866 84.6798 18.4645L84.748 17.7614C84.8224 16.9875 84.8595 16.6006 84.748 16.2428C84.6385 15.8839 84.3916 15.5937 83.8998 15.0154L83.4515 14.487C81.719 12.4483 80.8533 11.428 81.155 10.4492C81.4576 9.4704 82.7283 9.18019 85.2697 8.60187L85.9267 8.45209C86.6488 8.28775 87.0094 8.20558 87.2997 7.98403C87.5889 7.76247 87.7749 7.42651 88.1468 6.75457L88.4856 6.14297Z" fill="#F8BD00"/>
<g clip-path="url(#clip0_8_37)">
<path fill-rule="evenodd" clip-rule="evenodd" d="M118.886 3.50102C118.772 3.3046 118.609 3.14162 118.414 3.02835C118.218 2.91508 117.996 2.85547 117.77 2.85547C117.544 2.85547 117.322 2.91508 117.127 3.02835C116.931 3.14162 116.768 3.3046 116.654 3.50102L113.768 8.49061L108.159 9.71486C107.939 9.76312 107.735 9.86875 107.567 10.0212C107.4 10.1737 107.275 10.3677 107.205 10.5838C107.136 10.8 107.124 11.0308 107.17 11.2532C107.217 11.4755 107.32 11.6818 107.47 11.8513L111.293 16.1586L110.714 21.9054C110.691 22.1317 110.728 22.36 110.82 22.5677C110.912 22.7753 111.057 22.9549 111.24 23.0886C111.423 23.2223 111.637 23.3054 111.862 23.3296C112.086 23.3537 112.313 23.3181 112.52 23.2264L117.77 20.8964L123.02 23.2264C123.227 23.3181 123.454 23.3537 123.679 23.3296C123.903 23.3054 124.118 23.2223 124.3 23.0886C124.483 22.9549 124.628 22.7753 124.72 22.5677C124.812 22.36 124.849 22.1317 124.826 21.9054L124.247 16.1586L128.07 11.8524C128.22 11.6828 128.324 11.4765 128.371 11.254C128.417 11.0314 128.405 10.8005 128.336 10.5842C128.266 10.3678 128.141 10.1737 127.973 10.0212C127.806 9.86864 127.602 9.76302 127.381 9.71486L121.773 8.49165L118.886 3.50102ZM117.77 18.7444C117.948 18.7444 118.125 18.7808 118.291 18.8546L122.636 20.7831L122.158 16.0265C122.14 15.8468 122.159 15.6653 122.214 15.4935C122.27 15.3218 122.36 15.1636 122.48 15.029L125.643 11.4644L121.003 10.4523C120.827 10.4142 120.662 10.3398 120.517 10.2338C120.372 10.1278 120.25 9.9925 120.16 9.83656L117.77 5.70509V18.7444Z" fill="#F8BD00"/>
</g>
<defs>
<clipPath id="clip0_8_37">
<rect width="24.7937" height="24.9635" fill="white" transform="translate(105.373 0.518066)"/>
</clipPath>
</defs>
</svg>
